<svg xmlns="http://www.w3.org/2000/svg" viewBox="0 0 256 256" role="img" aria-labelledby="title desc">
  <title id="title">DigiPandit Mark</title>
  <desc id="desc">Circular spiritual brand mark for DigiPandit.</desc>
  <defs>
    <linearGradient id="ring" x1="0%" y1="0%" x2="100%" y2="100%">
      <stop offset="0%" stop-color="#0f8bb8" />
      <stop offset="100%" stop-color="#045d83" />
    </linearGradient>
  </defs>
  <g fill="none" fill-rule="evenodd">
    <circle cx="128" cy="128" r="103" stroke="url(#ring)" stroke-width="9" />
    <path
      d="M128 37c8 0 15 7 15 15 0 2 0 4-1 6 9 5 15 14 15 25 0 5-1 9-3 13-8-8-16-11-26-11s-18 3-26 11c-2-4-3-8-3-13 0-11 6-20 15-25-1-2-1-4-1-6 0-8 7-15 15-15Z"
      fill="#0b82ae"
    />
    <path
      d="M97 91c10-12 20-18 31-18s21 6 31 18c18 4 31 21 31 41 0 9-3 18-8 25-2-8-7-15-15-20 1 4 2 8 2 12 0 28-18 50-41 50s-41-22-41-50c0-4 1-8 2-12-8 5-13 12-15 20-5-7-8-16-8-25 0-20 13-37 31-41Z"
      fill="#0f8bb8"
    />
    <path
      d="M105 116c0-13 10-24 23-24s23 11 23 24v25c0 13-10 24-23 24s-23-11-23-24v-25Z"
      fill="#091116"
    />
    <path
      d="M110 146c7 8 12 11 18 11s11-3 18-11c-2 12-9 18-18 18s-16-6-18-18Z"
      fill="#0f8bb8"
    />
    <ellipse cx="118" cy="124" rx="6" ry="8" fill="#0f8bb8" />
    <ellipse cx="138" cy="124" rx="6" ry="8" fill="#0f8bb8" />
    <circle cx="128" cy="111" r="4" fill="#0f8bb8" />
    <path d="M128 128c3 5 4 9 4 13 0 4-2 7-4 9-2-2-4-5-4-9 0-4 1-8 4-13Z" fill="#0f8bb8" />
    <path
      d="M82 90c-18 2-31 11-38 27 0-24 19-46 44-50-3 7-5 15-6 23Zm92-23c25 4 44 26 44 50-7-16-20-25-38-27-1-8-3-16-6-23Z"
      fill="#0a759f"
    />
    <path
      d="M74 105c-12 8-19 20-21 37-8-17-7-35 3-52 6 5 12 10 18 15Zm108 0c6-5 12-10 18-15 10 17 11 35 3 52-2-17-9-29-21-37Z"
      fill="#0b6e97"
    />
    <path
      d="M82 151c-12 9-18 21-18 35 0 8 2 15 5 22-13-9-21-24-21-41 0-5 1-11 3-16 7 2 17 2 31 0Zm92 0c14 2 24 2 31 0 2 5 3 11 3 16 0 17-8 32-21 41 3-7 5-14 5-22 0-14-6-26-18-35Z"
      fill="#0a759f"
    />
    <path
      d="M98 184c7 4 17 6 30 6s23-2 30-6c-4 17-14 28-30 33-16-5-26-16-30-33Z"
      fill="#0f8bb8"
    />
  </g>
</svg>
